<svg xmlns="http://www.w3.org/2000/svg" viewBox="0 0 960 600" role="img" aria-hidden="true">
  <rect width="960" height="600" fill="#f3f3f0"/>
  <rect x="80" y="70" width="800" height="460" rx="14" fill="#fcfcfb" stroke="#e6e6e2" stroke-width="1"/>
  <rect x="80" y="70" width="800" height="36" rx="14" fill="#fff"/>
  <rect x="80" y="92" width="800" height="14" fill="#fff"/>
  <circle cx="102" cy="88" r="5" fill="#e4e4e0"/>
  <circle cx="120" cy="88" r="5" fill="#e4e4e0"/>
  <circle cx="138" cy="88" r="5" fill="#e4e4e0"/>
  <text x="160" y="94" font-family="system-ui,sans-serif" font-size="13" fill="#8a8a86">Slack · recommended action</text>
  <rect x="110" y="128" width="220" height="360" rx="12" fill="#f4f4f1"/>
<rect x="130" y="156" width="140" height="10" rx="4" fill="#dcdcd6"/>
<rect x="130" y="184" width="120" height="10" rx="4" fill="#dcdcd6"/>
<rect x="120" y="184" width="6" height="10" rx="3" fill="#2c2c2a"/>
<rect x="130" y="212" width="150" height="10" rx="4" fill="#dcdcd6"/>
<rect x="130" y="240" width="110" height="10" rx="4" fill="#dcdcd6"/>
<rect x="130" y="268" width="130" height="10" rx="4" fill="#dcdcd6"/>  <rect x="122" y="184" width="196" height="36" rx="8" fill="#2c2c2a"/>
  <rect x="138" y="198" width="120" height="8" rx="4" fill="#f0f0f0"/>
  <rect x="350" y="160" width="500" height="120" rx="12" fill="#fff" stroke="#ecece8"/>
  <circle cx="384" cy="196" r="16" fill="#e8e8e4"/>
  <rect x="416" y="184" width="200" height="8" rx="4" fill="#d2d2cc"/>
  <rect x="416" y="204" width="360" height="8" rx="4" fill="#e0e0da"/>
  <rect x="416" y="224" width="280" height="8" rx="4" fill="#e0e0da"/>
  <rect x="350" y="300" width="500" height="80" rx="12" fill="#f8f8f6" stroke="#ecece8"/>
  <rect x="370" y="324" width="100" height="10" rx="4" fill="#2c2c2a"/>
  <rect x="370" y="348" width="340" height="8" rx="4" fill="#d2d2cc"/>
</svg>
