<svg xmlns="http://www.w3.org/2000/svg" viewBox="0 0 960 600" role="img" aria-hidden="true">
  <rect width="960" height="600" fill="#f0f2f4"/>
  <rect x="80" y="70" width="800" height="460" rx="14" fill="#fcfcfb" stroke="#e6e6e2" stroke-width="1"/>
  <rect x="80" y="70" width="800" height="36" rx="14" fill="#fff"/>
  <rect x="80" y="92" width="800" height="14" fill="#fff"/>
  <circle cx="102" cy="88" r="5" fill="#e4e4e0"/>
  <circle cx="120" cy="88" r="5" fill="#e4e4e0"/>
  <circle cx="138" cy="88" r="5" fill="#e4e4e0"/>
  <text x="160" y="94" font-family="system-ui,sans-serif" font-size="13" fill="#8a8a86">Cyber Hack Trigger · news feed</text>
  <rect x="110" y="128" width="300" height="360" rx="12" fill="#f4f4f1"/>
<rect x="130" y="156" width="170" height="10" rx="4" fill="#dcdcd6"/>
<rect x="130" y="184" width="140" height="10" rx="4" fill="#dcdcd6"/>
<rect x="130" y="212" width="160" height="10" rx="4" fill="#dcdcd6"/>
<rect x="120" y="212" width="6" height="10" rx="3" fill="#2c2c2a"/>
<rect x="130" y="240" width="120" height="10" rx="4" fill="#dcdcd6"/>
<rect x="130" y="268" width="150" height="10" rx="4" fill="#dcdcd6"/>
<rect x="130" y="296" width="110" height="10" rx="4" fill="#dcdcd6"/>
<rect x="130" y="324" width="145" height="10" rx="4" fill="#dcdcd6"/>  <rect x="430" y="128" width="420" height="110" rx="12" fill="#fff" stroke="#ecece8"/>
  <rect x="450" y="148" width="72" height="20" rx="10" fill="#2c2c2a"/>
  <rect x="462" y="154" width="48" height="8" rx="3" fill="#f0f0ec"/>
<rect x="450" y="188" width="280" height="8" rx="4" fill="#d2d2cc"/>
<rect x="450" y="208" width="340" height="8" rx="4" fill="#d2d2cc"/>
<rect x="450" y="228" width="260" height="8" rx="4" fill="#d2d2cc"/>  <rect x="430" y="254" width="200" height="234" rx="12" fill="#fff" stroke="#ecece8"/>
  <rect x="650" y="254" width="200" height="234" rx="12" fill="#fff" stroke="#ecece8"/>
<rect x="450" y="278" width="140" height="8" rx="4" fill="#d8d8d2"/>
<rect x="450" y="306" width="120" height="8" rx="4" fill="#d8d8d2"/>
<rect x="450" y="334" width="100" height="8" rx="4" fill="#d8d8d2"/>
<rect x="450" y="362" width="130" height="8" rx="4" fill="#d8d8d2"/>
<rect x="450" y="390" width="90" height="8" rx="4" fill="#d8d8d2"/><rect x="670" y="278" width="140" height="8" rx="4" fill="#d8d8d2"/>
<rect x="670" y="306" width="100" height="8" rx="4" fill="#d8d8d2"/>
<rect x="670" y="334" width="120" height="8" rx="4" fill="#d8d8d2"/>
<rect x="670" y="362" width="110" height="8" rx="4" fill="#d8d8d2"/>
<rect x="670" y="390" width="95" height="8" rx="4" fill="#d8d8d2"/></svg>
